<mxfile host="Electron" modified="2023-11-05T12:00:43.255Z" agent="Mozilla/5.0 (Windows NT 10.0; Win64; x64) AppleWebKit/537.36 (KHTML, like Gecko) draw.io/22.0.3 Chrome/114.0.5735.289 Electron/25.8.4 Safari/537.36" etag="iEXpEqZXrP8_3tpf9mTs" version="22.0.3" type="device">
  <diagram name="Sayfa -1" id="FNPyqhEL2zk6xnR0VfGn">
    <mxGraphModel dx="1036" dy="606" grid="1" gridSize="10" guides="1" tooltips="1" connect="1" arrows="1" fold="1" page="1" pageScale="1" pageWidth="827" pageHeight="1169" math="0" shadow="0">
      <root>
        <mxCell id="0" />
        <mxCell id="1" parent="0" />
        <mxCell id="VVSLmEBQljUQEcn2yclR-11" style="edgeStyle=orthogonalEdgeStyle;rounded=0;orthogonalLoop=1;jettySize=auto;html=1;entryX=0.5;entryY=0;entryDx=0;entryDy=0;" edge="1" parent="1" source="VVSLmEBQljUQEcn2yclR-1" target="VVSLmEBQljUQEcn2yclR-10">
          <mxGeometry relative="1" as="geometry" />
        </mxCell>
        <mxCell id="VVSLmEBQljUQEcn2yclR-1" value="start" style="ellipse;whiteSpace=wrap;html=1;" vertex="1" parent="1">
          <mxGeometry x="330" y="30" width="120" height="80" as="geometry" />
        </mxCell>
        <mxCell id="VVSLmEBQljUQEcn2yclR-9" value="finish" style="ellipse;whiteSpace=wrap;html=1;" vertex="1" parent="1">
          <mxGeometry x="330" y="670" width="120" height="80" as="geometry" />
        </mxCell>
        <mxCell id="VVSLmEBQljUQEcn2yclR-21" style="edgeStyle=orthogonalEdgeStyle;rounded=0;orthogonalLoop=1;jettySize=auto;html=1;entryX=0.5;entryY=0;entryDx=0;entryDy=0;" edge="1" parent="1" source="VVSLmEBQljUQEcn2yclR-10" target="VVSLmEBQljUQEcn2yclR-18">
          <mxGeometry relative="1" as="geometry" />
        </mxCell>
        <mxCell id="VVSLmEBQljUQEcn2yclR-10" value="yarıçapı giriniz,r" style="shape=parallelogram;perimeter=parallelogramPerimeter;whiteSpace=wrap;html=1;fixedSize=1;" vertex="1" parent="1">
          <mxGeometry x="330" y="160" width="120" height="60" as="geometry" />
        </mxCell>
        <mxCell id="VVSLmEBQljUQEcn2yclR-15" style="edgeStyle=orthogonalEdgeStyle;rounded=0;orthogonalLoop=1;jettySize=auto;html=1;entryX=0.5;entryY=0;entryDx=0;entryDy=0;" edge="1" parent="1" source="VVSLmEBQljUQEcn2yclR-13" target="VVSLmEBQljUQEcn2yclR-14">
          <mxGeometry relative="1" as="geometry" />
        </mxCell>
        <mxCell id="VVSLmEBQljUQEcn2yclR-13" value="alan=pi*r^2" style="rounded=0;whiteSpace=wrap;html=1;" vertex="1" parent="1">
          <mxGeometry x="330" y="410" width="120" height="60" as="geometry" />
        </mxCell>
        <mxCell id="VVSLmEBQljUQEcn2yclR-16" style="edgeStyle=orthogonalEdgeStyle;rounded=0;orthogonalLoop=1;jettySize=auto;html=1;entryX=0.5;entryY=0;entryDx=0;entryDy=0;" edge="1" parent="1" source="VVSLmEBQljUQEcn2yclR-14" target="VVSLmEBQljUQEcn2yclR-9">
          <mxGeometry relative="1" as="geometry" />
        </mxCell>
        <mxCell id="VVSLmEBQljUQEcn2yclR-14" value="alan" style="shape=document;whiteSpace=wrap;html=1;boundedLbl=1;" vertex="1" parent="1">
          <mxGeometry x="330" y="530" width="120" height="80" as="geometry" />
        </mxCell>
        <mxCell id="VVSLmEBQljUQEcn2yclR-19" style="edgeStyle=orthogonalEdgeStyle;rounded=0;orthogonalLoop=1;jettySize=auto;html=1;entryX=0.5;entryY=0;entryDx=0;entryDy=0;" edge="1" parent="1" source="VVSLmEBQljUQEcn2yclR-18" target="VVSLmEBQljUQEcn2yclR-13">
          <mxGeometry relative="1" as="geometry" />
        </mxCell>
        <mxCell id="VVSLmEBQljUQEcn2yclR-18" value="pi=3.14" style="rounded=0;whiteSpace=wrap;html=1;" vertex="1" parent="1">
          <mxGeometry x="330" y="310" width="120" height="60" as="geometry" />
        </mxCell>
      </root>
    </mxGraphModel>
  </diagram>
</mxfile>
